<svg xmlns="http://www.w3.org/2000/svg" xmlns:svg="http://www.w3.org/2000/svg" id="Capa_1" width="32" height="32" x="0" y="0" version="1.1" viewBox="0 0 32 32" xml:space="preserve"><metadata id="metadata40"/><g id="g3" transform="matrix(0.07439802,0,0,0.07439802,0.11114776,-2.46438e-6)"><path id="Instapaper" d="m 310.641,418.049 c -26.285,-1.891 -43.329,-5.825 -51.104,-11.836 -7.775,-5.983 -11.663,-21.524 -11.663,-46.559 V 70.473 c 0,-23.915 3.888,-39.304 11.663,-46.186 7.775,-6.882 24.819,-10.958 51.104,-12.23 V 0 H 119.477 v 12.058 c 26.285,1.271 43.317,5.353 51.111,12.23 7.783,6.877 11.668,22.271 11.668,46.186 v 289.182 c 0,25.034 -3.885,40.575 -11.668,46.559 -7.794,6.011 -24.827,9.94 -51.111,11.836 v 12.068 h 191.164 v -12.07 z" style="fill:#bebebe;fill-opacity:1"/></g></svg>