<svg xmlns="http://www.w3.org/2000/svg" xmlns:svg="http://www.w3.org/2000/svg" id="svg702" width="32" height="32" version="1.1" viewBox="0 0 32 32"><path id="path700" d="M 29.11429,2 H 2.9 C 1.32143,2 0,3.32142 0,4.9 v 9.65714 C 0,23.46428 7.12143,30.57142 16.01429,30.57142 24.87143,30.57142 32,23.46428 32,14.55714 V 4.9 C 32,3.3 30.73571,2 29.11429,2 Z M 17.54286,21.17857 c -0.88572,0.84285 -2.24286,0.79285 -3.02857,0 -8.12143,-7.77857 -8.20715,-7.50715 -8.20715,-8.8 0,-1.20715 0.98572,-2.19286 2.19286,-2.19286 1.21429,0 1.15,0.27143 7.51429,6.37857 6.47142,-6.20714 6.32857,-6.37857 7.53571,-6.37857 1.20714,0 2.19286,0.98571 2.19286,2.19286 0,1.27143 -0.20715,1.12143 -8.2,8.8 z" style="stroke-width:.0714286;fill:#bebebe;fill-opacity:1"/></svg>